<svg width="358" height="39" xmlns="http://www.w3.org/2000/svg" xmlns:xlink="http://www.w3.org/1999/xlink" overflow="hidden"><defs><clipPath id="clip0"><rect x="882" y="41" width="358" height="39"/></clipPath></defs><g clip-path="url(#clip0)" transform="translate(-882 -41)"><path d="M22.033 0.00709824C-9.95884 1.41965 2.31403 36.5276 2.31403 36.5276 5.11074 33.5037 14.09 26.2777 26.6823 26.228 26.6965 26.228 26.7107 26.228 26.7249 26.228 32.7939 26.228 36.3643 31.3884 34.9873 36.5205 34.9873 36.5205 44.4421 25.4472 39.1823 12.8265 37.429 8.62437 32.7229 5.49404 27.2076 5.49404 25.3407 5.49404 23.3816 5.85605 21.4083 6.65106 16.7944 8.51789 16.1769 12.6917 17.121 14.6224 17.8095 16.0349 19.1866 16.7377 20.6559 16.7377 20.9043 16.7377 21.1528 16.7164 21.4083 16.6809 26.0435 15.9498 27.9316 13.8061 29.0034 13.8061 29.1525 13.8061 29.2874 13.8487 29.4151 13.9481 30.0966 14.4733 29.4435 16.6525 23.5094 19.0375 22.0755 19.6124 19.4421 20.2939 16.8441 20.2939 13.8203 20.2939 10.839 19.3782 9.83817 16.326 7.98553 10.6474 14.6579 3.86145 24.6806 3.07354 25.1917 3.03095 25.8802 3.00966 26.3629 3.00966 31.4594 3.00966 35.1221 5.30239 36.9251 6.82141 34.8524 3.33617 30.4799 0.134867 23.4242 0.0141965 23.4242 0.0141965 22.8422-0.0141965 22.033 0.00709824" fill="#E87200" transform="matrix(1 0 0 1.01676 882 41.1904)"/><path d="M307.737 34.6891C308.951 34.6891 309.995 33.9864 309.995 32.8152 309.995 31.9776 309.441 31.3246 308.468 30.9767L307.681 30.707C307.162 30.5296 306.935 30.3521 306.935 29.9262 306.935 29.5358 307.276 29.3158 307.808 29.3158 308.255 29.3158 308.731 29.5145 309.185 29.8552L309.796 28.9821C309.313 28.5278 308.582 28.2865 307.823 28.2865 306.445 28.2865 305.778 29.2306 305.778 30.0966 305.778 30.9058 306.24 31.5304 307.212 31.8356L307.801 32.0273C308.355 32.2047 308.788 32.3893 308.788 32.9217 308.788 33.383 308.412 33.667 307.766 33.667 307.162 33.667 306.538 33.3121 306.105 32.9359L305.423 33.7947C305.963 34.3981 306.815 34.6891 307.737 34.6891M303.798 34.6536C304.153 34.6536 304.543 34.5968 304.941 34.4549L304.941 33.4185C304.728 33.4753 304.501 33.525 304.273 33.525 303.791 33.525 303.606 33.3121 303.606 32.9146L303.606 29.5287 305.075 29.5287 305.075 28.5066 303.606 28.5066 303.606 26.8669 302.314 26.8669 302.314 28.5066 301.406 28.5066 301.406 29.5287 302.314 29.5287 302.314 33.3192C302.307 34.3839 303.074 34.6536 303.798 34.6536M297.587 30.9412 297.587 30.4018C297.587 29.8126 297.928 29.2732 298.644 29.2732 299.432 29.2732 299.702 29.8481 299.702 30.4373L299.702 30.9412 297.587 30.9412ZM298.708 34.6891C299.439 34.6891 300.192 34.5472 300.788 34.1L300.447 33.2269C300.107 33.383 299.567 33.6244 298.928 33.6244 298.119 33.6244 297.587 33.2979 297.587 32.4248L297.587 31.8356 300.944 31.8356 300.944 30.5296C300.944 29.1312 300.05 28.2936 298.687 28.2936 297.381 28.2936 296.302 29.1525 296.302 30.7425L296.302 32.439C296.295 34.0361 297.338 34.6891 298.708 34.6891M293.406 34.6891C294.62 34.6891 295.663 33.9864 295.663 32.8152 295.663 31.9776 295.11 31.3246 294.137 30.9767L293.349 30.707C292.831 30.5296 292.604 30.3521 292.604 29.9262 292.604 29.5358 292.945 29.3158 293.477 29.3158 293.924 29.3158 294.4 29.5145 294.854 29.8552L295.464 28.9821C294.982 28.5278 294.258 28.2865 293.491 28.2865 292.114 28.2865 291.447 29.2306 291.447 30.0966 291.447 30.9058 291.901 31.5304 292.881 31.8356L293.47 32.0273C294.023 32.2047 294.456 32.3893 294.456 32.9217 294.456 33.383 294.08 33.667 293.434 33.667 292.831 33.667 292.213 33.3121 291.773 32.9359L291.092 33.7947C291.631 34.3981 292.49 34.6891 293.406 34.6891M288.558 34.6891C289.772 34.6891 290.815 33.9864 290.815 32.8152 290.815 31.9776 290.261 31.3246 289.289 30.9767L288.501 30.707C287.983 30.5296 287.763 30.3521 287.763 29.9262 287.763 29.5358 288.104 29.3158 288.636 29.3158 289.083 29.3158 289.559 29.5145 290.013 29.8552L290.623 28.9821C290.141 28.5278 289.417 28.2865 288.65 28.2865 287.273 28.2865 286.606 29.2306 286.606 30.0966 286.606 30.9058 287.067 31.5304 288.04 31.8356L288.629 32.0273C289.182 32.2047 289.616 32.3893 289.616 32.9217 289.616 33.383 289.239 33.667 288.593 33.667 287.99 33.667 287.372 33.3121 286.932 32.9359L286.251 33.7947C286.783 34.3981 287.642 34.6891 288.558 34.6891M283.156 33.7167C282.638 33.7167 282.226 33.4114 282.226 32.7371 282.226 31.9634 282.872 31.7575 283.497 31.7575L284.278 31.7575 284.278 32.4674C284.278 33.1772 283.774 33.7167 283.156 33.7167M282.645 34.682C283.142 34.682 283.965 34.5046 284.363 33.6812L284.412 33.6812C284.434 34.1284 284.462 34.4336 284.462 34.5472L285.648 34.5472C285.633 34.2987 285.591 33.5818 285.591 33.0636L285.591 30.0966C285.591 28.8473 284.59 28.2936 283.405 28.2936 282.134 28.2936 281.112 28.897 281.112 29.9901L281.112 30.3521 282.276 30.3521 282.276 30.0469C282.276 29.5287 282.688 29.2093 283.291 29.2093 283.916 29.2093 284.292 29.5003 284.292 30.0824L284.292 30.92 283.412 30.92C282.326 30.92 280.941 31.4523 280.941 32.9217 280.927 34.1142 281.722 34.682 282.645 34.682M277.208 34.6536C277.563 34.6536 277.946 34.5968 278.351 34.4549L278.351 33.4185C278.138 33.4753 277.918 33.525 277.683 33.525 277.201 33.525 277.016 33.3121 277.016 32.9146L277.016 29.5287 278.485 29.5287 278.485 28.5066 277.016 28.5066 277.016 26.8669 275.724 26.8669 275.724 28.5066 274.816 28.5066 274.816 29.5287 275.724 29.5287 275.724 33.3192C275.71 34.3839 276.477 34.6536 277.208 34.6536M273.921 34.6465C274.227 34.6465 274.532 34.5968 274.837 34.4904L274.837 33.5108C274.695 33.5321 274.51 33.5605 274.376 33.5605 273.907 33.5605 273.765 33.3121 273.765 32.9855L273.765 26.157 272.473 26.157 272.473 33.2766C272.473 34.1639 273.02 34.6465 273.921 34.6465M269.889 27.6193 271.167 27.6193 271.167 26.1641 269.889 26.1641 269.889 27.6193ZM269.889 34.5543 271.167 34.5543 271.167 28.4427 269.889 28.4427 269.889 34.5543ZM265.538 34.6891C266.305 34.6891 267.05 34.2206 267.306 33.5747L267.334 33.5747 267.37 34.5543 268.569 34.5543 268.569 28.4498 267.284 28.4498 267.284 32.2473C267.284 33.0494 266.695 33.6812 266.014 33.6812 265.368 33.6812 265.162 33.3263 265.162 32.6803L265.162 28.4427 263.884 28.4427 263.884 33.021C263.884 34.1142 264.665 34.6891 265.538 34.6891M260.676 33.7663C260.051 33.7663 259.412 33.1275 259.412 32.297L259.412 30.8064C259.412 29.8765 260.051 29.3229 260.605 29.3229 261.23 29.3229 261.57 29.6139 261.57 30.3095L261.57 32.6874C261.57 33.3972 261.23 33.7663 260.676 33.7663M260.967 34.6891C262.039 34.6891 262.848 33.8444 262.848 32.6448L262.848 30.2385C262.848 29.2235 262.33 28.2865 261.13 28.2865 260.541 28.2865 259.789 28.6414 259.448 29.3229L259.412 29.3229 259.412 26.157 258.135 26.157 258.135 34.5472 259.263 34.5472 259.299 33.6315 259.32 33.6315C259.59 34.2916 260.378 34.6891 260.967 34.6891" fill="#FFFFFF" transform="matrix(1 0 0 1.01676 882 41.1904)"/><path d="M321.991 22.6505C321.366 22.6505 321.061 22.2885 321.061 21.6496L321.061 19.3214C321.061 18.498 321.437 18.207 321.955 18.207 322.523 18.207 323.219 18.7962 323.219 19.6195L323.219 21.1812C323.211 22.033 322.601 22.6505 321.991 22.6505M321.494 23.6585C322.175 23.6585 322.828 23.2822 323.226 22.544L323.261 22.544 323.318 23.5165 324.496 23.5165 324.496 15.1264 323.204 15.1264 323.204 18.1005 323.19 18.1005C322.849 17.5965 322.26 17.27 321.671 17.27 320.621 17.27 319.776 18.0934 319.776 19.2717L319.776 21.7206C319.776 22.757 320.308 23.6585 321.494 23.6585M314.083 23.5165 315.368 23.5165 315.368 19.655C315.368 18.8529 316.028 18.278 316.617 18.278 317.221 18.278 317.49 18.5619 317.49 19.2079L317.49 23.5165 318.775 23.5165 318.775 18.9523C318.775 17.987 318.072 17.27 317.199 17.27 316.433 17.27 315.737 17.5895 315.34 18.3774L315.318 18.3774 315.318 17.412 314.097 17.412 314.097 23.5165ZM310.513 22.686C309.995 22.686 309.583 22.3808 309.583 21.7064 309.583 20.9327 310.229 20.7269 310.853 20.7269L311.627 20.7269 311.627 21.4367C311.634 22.1394 311.13 22.686 310.513 22.686M309.995 23.6443C310.491 23.6443 311.315 23.4668 311.712 22.6434L311.762 22.6434C311.783 23.0906 311.812 23.3958 311.812 23.5094L312.997 23.5094C312.983 23.261 312.94 22.544 312.94 22.0259L312.94 19.0588C312.94 17.8095 311.939 17.2629 310.754 17.2629 309.483 17.2629 308.461 17.8592 308.461 18.9523L308.461 19.3214 309.625 19.3214 309.625 19.0233C309.625 18.5051 310.037 18.1857 310.641 18.1857 311.265 18.1857 311.641 18.4767 311.641 19.0588L311.641 19.8964 310.761 19.8964C309.675 19.8964 308.291 20.4217 308.291 21.8981 308.277 23.0835 309.079 23.6443 309.995 23.6443M305.068 23.6088C305.374 23.6088 305.679 23.5591 305.984 23.4526L305.984 22.4801C305.842 22.5014 305.658 22.5298 305.53 22.5298 305.054 22.5298 304.919 22.2814 304.919 21.9549L304.919 15.1264 303.627 15.1264 303.627 22.2459C303.62 23.1261 304.16 23.6088 305.068 23.6088M300.1 22.686C299.581 22.686 299.17 22.3808 299.17 21.7064 299.17 20.9327 299.816 20.7269 300.44 20.7269L301.221 20.7269 301.221 21.4367C301.221 22.1394 300.71 22.686 300.1 22.686M299.581 23.6443C300.078 23.6443 300.902 23.4668 301.299 22.6434L301.349 22.6434C301.37 23.0906 301.399 23.3958 301.399 23.5094L302.584 23.5094C302.57 23.261 302.527 22.544 302.527 22.0259L302.527 19.0588C302.527 17.8095 301.526 17.2629 300.341 17.2629 299.07 17.2629 298.048 17.8592 298.048 18.9523L298.048 19.3214 299.212 19.3214 299.212 19.0233C299.212 18.5051 299.624 18.1857 300.227 18.1857 300.852 18.1857 301.228 18.4767 301.228 19.0588L301.228 19.8964 300.341 19.8964C299.255 19.8964 297.871 20.4217 297.871 21.8981 297.864 23.0835 298.666 23.6443 299.581 23.6443M294.307 23.5165 295.585 23.5165 295.585 19.7899C295.599 18.7749 296.373 18.4696 297.012 18.4696 297.118 18.4696 297.31 18.4696 297.566 18.5051L297.566 17.3765C297.424 17.341 297.211 17.3268 297.083 17.3268 296.387 17.3268 295.933 17.632 295.543 18.4058L295.528 18.4058 295.528 17.4049 294.307 17.4049 294.307 23.5165ZM290.07 23.6585C290.836 23.6585 291.575 23.19 291.837 22.544L291.859 22.544 291.894 23.5165 293.094 23.5165 293.094 17.412 291.816 17.412 291.816 21.2096C291.816 22.0117 291.227 22.6434 290.545 22.6434 289.899 22.6434 289.694 22.2885 289.694 21.6425L289.694 17.4049 288.416 17.4049 288.416 21.9833C288.416 23.0835 289.204 23.6585 290.07 23.6585M286.308 23.623C286.663 23.623 287.046 23.5662 287.451 23.4242L287.451 22.3879C287.238 22.4517 287.018 22.4943 286.783 22.4943 286.301 22.4943 286.116 22.2814 286.116 21.8839L286.116 18.4909 287.585 18.4909 287.585 17.4688 286.116 17.4688 286.116 15.8291 284.824 15.8291 284.824 17.4688 283.916 17.4688 283.916 18.4909 284.824 18.4909 284.824 22.2814C284.81 23.3532 285.577 23.623 286.308 23.623M280.785 22.686C280.267 22.686 279.855 22.3808 279.855 21.7064 279.855 20.9327 280.501 20.7269 281.126 20.7269L281.9 20.7269 281.9 21.4367C281.907 22.1394 281.396 22.686 280.785 22.686M280.267 23.6443C280.764 23.6443 281.587 23.4668 281.985 22.6434L282.027 22.6434C282.049 23.0906 282.077 23.3958 282.077 23.5094L283.263 23.5094C283.248 23.261 283.206 22.544 283.206 22.0259L283.206 19.0588C283.206 17.8095 282.205 17.2629 281.02 17.2629 279.749 17.2629 278.727 17.8592 278.727 18.9523L278.727 19.3214 279.891 19.3214 279.891 19.0233C279.891 18.5051 280.303 18.1857 280.906 18.1857 281.531 18.1857 281.907 18.4767 281.907 19.0588L281.907 19.8964 281.027 19.8964C279.941 19.8964 278.556 20.4217 278.556 21.8981 278.549 23.0835 279.351 23.6443 280.267 23.6443M272.984 23.5165 274.262 23.5165 274.262 19.655C274.262 18.8529 274.922 18.278 275.511 18.278 276.115 18.278 276.384 18.5619 276.384 19.2079L276.384 23.5165 277.662 23.5165 277.662 18.9523C277.662 17.987 276.959 17.27 276.086 17.27 275.32 17.27 274.624 17.5895 274.227 18.3774L274.205 18.3774 274.205 17.412 272.984 17.412 272.984 23.5165ZM267.178 23.5165 268.463 23.5165 268.463 19.7899C268.477 18.7749 269.251 18.4696 269.889 18.4696 269.996 18.4696 270.181 18.4696 270.443 18.5051L270.443 17.3765C270.301 17.341 270.088 17.3268 269.96 17.3268 269.265 17.3268 268.803 17.632 268.42 18.4058L268.406 18.4058 268.406 17.4049 267.185 17.4049 267.185 23.5165ZM263.778 22.6505C263.011 22.6505 262.685 22.1678 262.685 21.4651L262.685 19.4989C262.685 18.8174 262.99 18.2709 263.757 18.2709 264.509 18.2709 264.85 18.7749 264.85 19.4492L264.85 21.4509C264.85 22.1323 264.58 22.6505 263.778 22.6505M263.764 23.6585C265.048 23.6585 266.142 22.9628 266.142 21.4012L266.142 19.5202C266.142 17.9657 265.063 17.27 263.742 17.27 262.443 17.27 261.393 18.0437 261.393 19.5557L261.393 21.4296C261.386 22.977 262.443 23.6585 263.764 23.6585M258.433 23.5165 259.711 23.5165 259.711 18.4909 260.818 18.4909 260.818 17.4546 259.711 17.4546 259.711 16.6738C259.711 16.1911 259.966 16.0491 260.335 16.0491 260.52 16.0491 260.804 16.0633 260.946 16.113L260.946 15.098C260.69 15.0412 260.406 15.0128 260.122 15.0128 259.107 15.0128 258.426 15.5523 258.426 16.6738L258.426 17.4546 257.617 17.4546 257.617 18.4909 258.426 18.4909 258.426 23.5165Z" fill="#FFFFFF" transform="matrix(1 0 0 1.01676 882 41.1904)"/><path d="M354.032 14.7076C354.813 14.7076 355.516 14.3314 355.892 13.0963L358 6.37422 356.836 6.37422 355.579 10.7184 355.572 10.7184 354.266 6.37422 352.911 6.37422 354.898 12.3509 354.699 13.0466C354.55 13.4938 354.28 13.6357 353.904 13.6357 353.691 13.6357 353.443 13.6002 353.223 13.5505L353.223 14.6082C353.457 14.6721 353.72 14.7076 354.032 14.7076M350.227 12.6207C351.569 12.6207 352.449 11.8825 352.449 10.7822L352.449 10.3918 351.264 10.3918 351.264 10.6261C351.264 11.0236 351.072 11.6127 350.313 11.6127 349.532 11.6127 349.205 11.1371 349.205 10.4486L349.205 8.39013C349.205 7.72289 349.51 7.24021 350.277 7.24021 351.015 7.24021 351.264 7.74419 351.264 8.17008L351.264 8.43981 352.449 8.43981 352.449 8.0849C352.449 6.95628 351.583 6.22516 350.227 6.22516 348.964 6.22516 347.906 6.98467 347.906 8.4824L347.906 10.4131C347.906 11.9321 348.907 12.6207 350.227 12.6207M342.235 12.4858 343.52 12.4858 343.52 8.62437C343.52 7.82227 344.18 7.24731 344.769 7.24731 345.372 7.24731 345.642 7.53124 345.642 8.17718L345.642 12.4858 346.927 12.4858 346.927 7.92164C346.927 6.95628 346.224 6.23936 345.351 6.23936 344.584 6.23936 343.889 6.55878 343.491 7.34668L343.47 7.34668 343.47 6.37422 342.249 6.37422 342.249 12.4858ZM338.664 11.6482C338.146 11.6482 337.734 11.343 337.734 10.6687 337.734 9.89495 338.38 9.6891 339.005 9.6891L339.786 9.6891 339.786 10.3989C339.786 11.1088 339.282 11.6482 338.664 11.6482M338.146 12.6136C338.643 12.6136 339.466 12.4361 339.864 11.6127L339.914 11.6127C339.935 12.0599 339.963 12.3651 339.963 12.4787L341.149 12.4787C341.135 12.2303 341.092 11.5134 341.092 10.9952L341.092 8.02812C341.092 6.77882 340.091 6.23226 338.906 6.23226 337.635 6.23226 336.613 6.82851 336.613 7.92164L336.613 8.29075 337.777 8.29075 337.777 7.98553C337.777 7.46735 338.189 7.14793 338.792 7.14793 339.417 7.14793 339.793 7.43896 339.793 8.02102L339.793 8.85861 338.906 8.85861C337.82 8.85861 336.436 9.39098 336.436 10.8603 336.436 12.0457 337.231 12.6136 338.146 12.6136M334.597 12.5923C334.945 12.5923 335.335 12.5355 335.74 12.3935L335.74 11.3572C335.527 11.414 335.307 11.4637 335.073 11.4637 334.59 11.4637 334.398 11.2507 334.398 10.8532L334.398 7.46026 335.868 7.46026 335.868 6.43811 334.398 6.43811 334.398 4.79841 333.106 4.79841 333.106 6.43811 332.198 6.43811 332.198 7.46026 333.106 7.46026 333.106 11.2507C333.099 12.3155 333.866 12.5923 334.597 12.5923M331.112 12.5781C331.417 12.5781 331.722 12.5284 332.028 12.4219L332.028 11.4495C331.886 11.4708 331.701 11.4992 331.566 11.4992 331.098 11.4992 330.956 11.2507 330.956 10.9242L330.956 4.09569 329.664 4.09569 329.664 11.2152C329.664 12.0954 330.203 12.5781 331.112 12.5781M325.518 12.6207C326.285 12.6207 327.023 12.1522 327.286 11.5063L327.307 11.5063 327.343 12.4787 328.542 12.4787 328.542 6.37422 327.265 6.37422 327.265 10.1789C327.265 10.981 326.675 11.6127 325.994 11.6127 325.348 11.6127 325.149 11.2578 325.149 10.6119L325.149 6.37422 323.865 6.37422 323.865 10.9526C323.857 12.0457 324.645 12.6207 325.518 12.6207M320.727 12.6207C321.941 12.6207 322.984 11.918 322.984 10.7467 322.984 9.90915 322.431 9.25611 321.458 8.9083L320.67 8.63856C320.152 8.46111 319.925 8.28365 319.925 7.86486 319.925 7.47445 320.266 7.25441 320.798 7.25441 321.245 7.25441 321.714 7.45316 322.175 7.79387L322.786 6.92079C322.303 6.4594 321.572 6.22516 320.812 6.22516 319.435 6.22516 318.761 7.16213 318.761 8.03521 318.761 8.84441 319.222 9.46906 320.195 9.78138L320.784 9.97303C321.338 10.1505 321.771 10.335 321.771 10.8674 321.771 11.3288 321.394 11.6127 320.748 11.6127 320.145 11.6127 319.52 11.2578 319.087 10.8816L318.406 11.7405C318.945 12.3297 319.804 12.6207 320.727 12.6207M312.912 12.4858 314.19 12.4858 314.19 8.62437C314.19 7.82227 314.85 7.24731 315.439 7.24731 316.042 7.24731 316.312 7.53124 316.312 8.17718L316.312 12.4858 317.597 12.4858 317.597 7.92164C317.597 6.95628 316.894 6.23936 316.021 6.23936 315.254 6.23936 314.559 6.55878 314.161 7.34668L314.14 7.34668 314.14 6.37422 312.919 6.37422 312.919 12.4858ZM309.512 11.6127C308.745 11.6127 308.419 11.13 308.419 10.4202L308.419 8.45401C308.419 7.77258 308.724 7.23311 309.491 7.23311 310.243 7.23311 310.584 7.73709 310.584 8.41142L310.584 10.4131C310.584 11.0946 310.314 11.6127 309.512 11.6127M309.498 12.6207C310.782 12.6207 311.876 11.9251 311.876 10.3634L311.876 8.4824C311.876 6.92789 310.797 6.23936 309.476 6.23936 308.185 6.23936 307.127 7.01307 307.127 8.51789L307.127 10.3918C307.12 11.9392 308.185 12.6207 309.498 12.6207M303.493 12.6207C305.012 12.6207 306.197 11.776 306.197 10.2925L306.197 9.75299 304.962 9.75299 304.962 10.2002C304.962 10.9668 304.394 11.485 303.5 11.485 302.556 11.485 301.938 11.0023 301.938 9.93044L301.938 6.58717C301.938 5.6786 302.492 5.08234 303.464 5.08234 304.415 5.08234 304.962 5.63601 304.962 6.42391L304.962 6.81432 306.197 6.81432 306.197 6.26065C306.197 4.82681 305.012 3.95372 303.478 3.95372 301.832 3.95372 300.547 4.90489 300.547 6.54458L300.547 10.0298C300.554 11.8115 301.867 12.6207 303.493 12.6207M294.031 7.41057C293.534 6.72914 293.207 6.29614 293.207 5.87025 293.207 5.36627 293.527 4.89069 294.173 4.89069 294.797 4.89069 295.188 5.2456 295.188 5.84186 295.188 6.53748 294.762 7.08405 294.031 7.41057M293.676 11.5417C292.781 11.5417 292.192 10.9526 292.192 10.1505 292.192 9.54004 292.519 8.8941 293.307 8.57468L295.145 10.9171C294.769 11.2933 294.265 11.5417 293.676 11.5417M293.385 12.6562C294.336 12.6562 295.166 12.2658 295.763 11.6198L296.43 12.4787 298.077 12.4787 296.771 10.8816C297.161 10.3279 297.537 9.52584 297.7 8.68115L296.536 8.5037C296.409 9.11415 296.252 9.6891 296.089 10.0298L294.57 8.092C295.663 7.64481 296.416 6.8569 296.416 5.74958 296.416 4.72743 295.514 3.93953 294.201 3.93953 292.497 3.93953 291.915 5.04685 291.915 5.96253 291.915 6.58717 292.235 7.24731 292.725 7.84356 291.582 8.29075 290.9 9.27031 290.9 10.2996 290.914 11.6979 291.887 12.6562 293.385 12.6562M283.39 12.4858 284.675 12.4858 284.675 8.62437C284.675 7.82227 285.335 7.24731 285.924 7.24731 286.528 7.24731 286.797 7.53124 286.797 8.17718L286.797 12.4858 288.075 12.4858 288.075 7.92164C288.075 6.95628 287.372 6.23936 286.499 6.23936 285.733 6.23936 285.037 6.55878 284.64 7.34668L284.618 7.34668 284.618 6.37422 283.397 6.37422 283.397 12.4858ZM279.713 11.3217C279.032 11.3217 278.798 10.8603 278.798 10.2854L278.798 8.30495C278.798 7.56673 279.089 7.15503 279.742 7.15503 280.274 7.15503 280.941 7.6874 280.941 8.5108L280.941 9.74589C280.941 10.6332 280.317 11.3217 279.713 11.3217M279.749 14.6934C281.339 14.6934 282.233 13.8132 282.233 12.2445L282.233 6.36003 281.14 6.36003 281.091 7.20472 281.076 7.20472C280.785 6.55878 280.061 6.21806 279.451 6.21806 278.429 6.21806 277.506 6.92079 277.506 8.0991L277.506 10.4912C277.506 11.5275 278.116 12.28 279.295 12.28 279.905 12.28 280.579 11.9534 280.934 11.2081L280.949 11.2081 280.949 12.5C280.949 13.3163 280.487 13.6428 279.642 13.6428 279.068 13.6428 278.457 13.4512 277.953 13.2169L277.563 14.2391C278.138 14.5585 278.961 14.6934 279.749 14.6934M275.192 5.55083 276.47 5.55083 276.47 4.09569 275.192 4.09569 275.192 5.55083ZM275.192 12.4858 276.47 12.4858 276.47 6.38132 275.192 6.38132 275.192 12.4858ZM272.047 12.6207C273.261 12.6207 274.305 11.918 274.305 10.7467 274.305 9.90915 273.751 9.25611 272.778 8.9083L271.991 8.63856C271.472 8.46111 271.245 8.28365 271.245 7.86486 271.245 7.47445 271.586 7.25441 272.118 7.25441 272.565 7.25441 273.034 7.45316 273.495 7.79387L274.106 6.92079C273.623 6.4594 272.892 6.22516 272.133 6.22516 270.755 6.22516 270.081 7.16213 270.081 8.03521 270.081 8.84441 270.543 9.46906 271.515 9.78138L272.104 9.97303C272.658 10.1505 273.091 10.335 273.091 10.8674 273.091 11.3288 272.715 11.6127 272.069 11.6127 271.465 11.6127 270.841 11.2578 270.408 10.8816L269.726 11.7405C270.266 12.3297 271.125 12.6207 272.047 12.6207M266.028 8.87281 266.028 8.33334C266.028 7.74419 266.369 7.20472 267.086 7.20472 267.874 7.20472 268.143 7.77968 268.143 8.36883L268.143 8.87281 266.028 8.87281ZM267.15 12.6207C267.881 12.6207 268.633 12.4787 269.229 12.0315L268.889 11.1584C268.548 11.3146 268.008 11.563 267.37 11.563 266.56 11.563 266.028 11.2294 266.028 10.3634L266.028 9.77428 269.385 9.77428 269.385 8.46821C269.385 7.06985 268.491 6.23226 267.128 6.23226 265.822 6.23226 264.743 7.09115 264.743 8.68115L264.743 10.3776C264.736 11.9676 265.78 12.6207 267.15 12.6207M259.519 11.3572 259.519 5.21721 260.917 5.21721C261.932 5.21721 262.401 5.84186 262.401 6.65106L262.401 9.90205C262.401 10.5835 261.975 11.3501 260.917 11.3501L259.519 11.3501ZM258.128 12.4858 261.073 12.4858C262.635 12.4858 263.806 11.6624 263.806 9.94464L263.806 6.49489C263.806 4.8481 262.628 4.09569 261.073 4.09569L258.128 4.09569 258.128 12.4858Z" fill="#E87200" transform="matrix(1 0 0 1.01676 882 41.1904)"/><path d="M87.7343 7.71579 87.7343 19.5131 97.6293 19.5131C101.952 19.5131 103.854 16.7732 103.854 13.7067 103.854 10.7822 101.952 7.71579 97.6789 7.71579L87.7343 7.71579ZM110.612 35.4983 104.507 35.4983 94.6125 24.2547 87.7343 24.2547 87.7343 35.4983 82.5313 35.4983 82.5313 2.97416C87.5923 2.97416 92.6108 2.97416 97.6789 2.97416 105.203 2.97416 109.157 8.13459 109.157 13.6144 109.157 18.2638 106.743 22.8138 100.327 23.7436L110.612 35.4983Z" fill="#FFFFFF" transform="matrix(1 0 0 1.01676 882 41.1904)"/><path d="M175.994 30.4799 183.149 30.4799C191.092 30.4799 194.442 24.6238 194.3 18.9097 194.165 13.4299 190.815 7.94294 183.149 7.94294L175.994 7.94294 175.994 30.4799ZM199.454 18.9594C199.638 27.1863 194.527 35.4983 183.149 35.4983L170.841 35.4983 170.841 2.97416 183.149 2.97416C194.251 2.97416 199.319 10.9171 199.454 18.9594" fill="#FFFFFF" transform="matrix(1 0 0 1.01676 882 41.1904)"/><path d="M203.443 2.97416 208.596 2.97416 208.596 35.4983 203.443 35.4983Z" fill="#FFFFFF" transform="matrix(1 0 0 1.01676 882 41.1904)"/><path d="M226.285 20.8617C219.826 19.9816 213.693 18.349 213.693 11.3856 213.643 4.64935 220.386 2.04429 226.235 2.04429 230.927 2.04429 235.619 3.15872 238.359 7.52414L234.412 10.1718C232.879 7.94294 229.77 6.59427 226.377 6.55168 222.012 6.55168 218.846 8.36173 218.846 11.4779 218.846 14.6366 222.473 15.5168 226.746 16.1201 233.433 17.05 239.8 18.9097 239.8 26.1996 239.757 33.4966 233.113 36.2365 226.328 36.2365 220.102 36.2365 215.318 34.3271 212.344 28.8473L216.248 26.2422C218.569 30.1888 222.615 31.5872 226.377 31.5872 230.281 31.5872 234.604 30.2811 234.604 26.1996 234.604 22.6789 230.835 21.4651 226.285 20.8617" fill="#FFFFFF" transform="matrix(1 0 0 1.01676 882 41.1904)"/><path d="M80.7425 35.4983 66.1556 2.97416 60.4912 2.97416 45.8973 35.4983 51.4339 35.4983 63.3234 8.46111 70.1236 23.9282 59.3697 23.9282 57.2828 28.6698 72.2104 28.6698 75.213 35.4983Z" fill="#FFFFFF" transform="matrix(1 0 0 1.01676 882 41.1904)"/><path d="M139.317 24.0701C138.302 26.079 137.188 27.3495 136.79 27.7754 134.512 30.0327 131.19 31.2749 128.187 31.2749 119.776 31.2749 116.248 25.3691 116.198 19.4279 116.149 13.437 119.918 7.34668 128.187 7.34668 131.204 7.34668 134.27 8.41852 136.599 10.69L140.084 7.34668C136.783 4.046 132.553 2.4205 128.187 2.4205 116.574 2.4205 110.995 10.9242 111.045 19.4705 111.095 28.0168 116.39 36.1514 128.187 36.1514 132.737 36.1514 137.06 34.6181 140.403 31.3175 140.403 31.3175 142.469 29.2448 143.81 26.1925L144.222 25.2698 145.173 23.1048 151.619 8.45401 158.419 23.9282 147.665 23.9282 145.578 28.6698 160.506 28.6698 163.508 35.4983 169.045 35.4983 154.451 2.97416 148.786 2.97416" fill="#FFFFFF" transform="matrix(1 0 0 1.01676 882 41.1904)"/><path d="M248.396 0.496877 249.177 0.496877 249.177 37.9898 248.396 37.9898Z" fill="#E87200" transform="matrix(1 0 0 1.01676 882 41.1904)"/></g></svg>